# xmcd CD database file
#
# Track frame offsets:
#	150
#	19347
#	40112
#	59432
#	75320
#	102237
#	118237
#	140480
#	161022
#	175660
#
# Disc length: 2644 seconds
#
# Revision: 5
# Processed by: cddbd v1.5.2PL0 Copyright (c) Steve Scherf et al.
# Submitted via: CDex 1.40Release
#
DISCID=7e0a520a
DTITLE=Back Street Crawler - The Band Plays On
DYEAR=1975
DGENRE=Rock
TTITLE0=Who Do Woman
TTITLE1=New York , New York
TTITLE2=Stealing My Way
TTITLE3=Survivor
TTITLE4=It's A Long Way Down To The Top
TTITLE5=All The Girls Are Crazy
TTITLE6=Jason Blue
TTITLE7=Train Song
TTITLE8=Rock and Roll Junkie
TTITLE9=The Band Plays On
EXTD=YEAR: 1975 ID3G: 17
EXTT0=
EXTT1=
EXTT2=
EXTT3=
EXTT4=
EXTT5=
EXTT6=
EXTT7=
EXTT8=
EXTT9=
PLAYORDER=
